PathFileType	4	(X/Y/Z)	/Users/niels/Desktop/University/Third Semester/Perception and Action/Exam/Gymnastics Motion Tracking/Code for Gym Tracking/Analyzed Data/Backflip/backflip_good_idn_2_Sports2D/backflip_good_idn_2_Sports2D_px_person00.trc
DataRate	CameraRate	NumFrames	NumMarkers	Units	OrigDataRate	OrigDataStartFrame	OrigNumFrames
59.762675296655885	59.762675296655885	8	22	m	59.762675296655885	208	278
Frame#	Time	Hip			RHip			RKnee			RAnkle			RBigToe			RSmallToe			RHeel			LHip			LKnee			LAnkle			LBigToe			LSmallToe			LHeel			Neck			Head			Nose			RShoulder			RElbow			RWrist			LShoulder			LElbow			LWrist		
		X1	Y1	Z1	X2	Y2	Z2	X3	Y3	Z3	X4	Y4	Z4	X5	Y5	Z5	X6	Y6	Z6	X7	Y7	Z7	X8	Y8	Z8	X9	Y9	Z9	X10	Y10	Z10	X11	Y11	Z11	X12	Y12	Z12	X13	Y13	Z13	X14	Y14	Z14	X15	Y15	Z15	X16	Y16	Z16	X17	Y17	Z17	X18	Y18	Z18	X19	Y19	Z19	X20	Y20	Z20	X21	Y21	Z21	X22	Y22	Z22
208	3.4804332129963895	1.041022747915031	-0.522583534046716	0.0	1.0387871288412445	-0.5224106602019913	0.0	1.0968623256642622	-0.5885133816252609	0.0	1.0843064660916926	-0.683880294136662	0.0	1.1046515947203708	-0.7175793548927064	0.0	1.0968793520205262	-0.7173815545642437	0.0	1.077475742171277	-0.6953318151336096	0.0	1.0443308031920517	-0.5214085869397419	0.0	1.0977355355780012	-0.5879044103176357	0.0	1.0877326547650226	-0.683430988744238	0.0	1.1106941104045478	-0.7173421852055206	0.0	1.1076220361991373	-0.7181592780935019	0.0	1.0759941224434209	-0.6950418303097795	0.0	0.9842481766184928	-0.4130373182362239	0.0	0.9733367316230974	-0.3524756199256835	0.0	0.9955657638425165	-0.37954742464460867	0.0	0.9744591733277849	-0.41454443572848826	0.0	0.967418507013592	-0.342027053056045	0.0	0.9530260271556632	-0.28680381167661156	0.0	0.9911720321054927	-0.41799019733832155	0.0	0.976072833358443	-0.35597848154124606	0.0	0.9707750786062269	-0.3285320545494277	0.0
209	3.497166064981949	1.0384633146519895	-0.5117528284760743	0.0	1.0361103970647751	-0.5117978144219141	0.0	1.102561991304999	-0.5655568109038335	0.0	1.0930702562767514	-0.661973844321992	0.0	1.1146337159747979	-0.6989293791716784	0.0	1.107130075989578	-0.6986004543327803	0.0	1.086073815036854	-0.6743910094370296	0.0	1.0420515970641633	-0.510312880108663	0.0	1.103272848636894	-0.5649229085887612	0.0	1.0964407482644654	-0.6614823236521983	0.0	1.1205313235181715	-0.6987105658375323	0.0	1.1181580415071823	-0.699472818314457	0.0	1.0840515284643488	-0.6745576785053916	0.0	0.9777937121001421	-0.4040315589992184	0.0	0.9672945615334716	-0.343138000143805	0.0	0.9900193821688893	-0.37080300406102706	0.0	0.967864708492345	-0.40554543125257714	0.0	0.9629319541599716	-0.3347944709446157	0.0	0.9513162653420542	-0.27923102772133895	0.0	0.9855056932707088	-0.4085637298604554	0.0	0.9715885878358526	-0.3461992747804489	0.0	0.966187279642502	-0.3112897756957195	0.0
210	3.5138989169675083	1.0357144215746732	-0.5017322609636558	0.0	1.0333516250097026	-0.5020444496499374	0.0	1.1071089937688723	-0.5417459099951261	0.0	1.1020620709714715	-0.6382837039732965	0.0	1.1251919248520834	-0.6770082362067588	0.0	1.1180491388206195	-0.67668831510399	0.0	1.095178103662295	-0.6513231575047532	0.0	1.0395343185291732	-0.49991015674004435	0.0	1.1076783663922902	-0.5409650715441345	0.0	1.1052180069287456	-0.6375609418451514	0.0	1.1308528592918154	-0.6765361459194069	0.0	1.128852605877558	-0.6772351388842873	0.0	1.092511490351112	-0.6517947838212975	0.0	0.9715418736766872	-0.39583969046109285	0.0	0.9616472690113822	-0.33456535669190923	0.0	0.9848093179417502	-0.3628516970416021	0.0	0.9616959087205397	-0.39739296499195564	0.0	0.9598200000248739	-0.32880759522068526	0.0	0.9515281645586947	-0.27291555112040855	0.0	0.9798067473196542	-0.3999853689706041	0.0	0.9683881067158532	-0.33811764537019623	0.0	0.9637587331219214	-0.29701096309194036	0.0
211	3.530631768953068	1.0329737446099114	-0.49250276020208383	0.0	1.0307096882423918	-0.49311963314520824	0.0	1.1100566037363895	-0.5173736583350192	0.0	1.110894053524831	-0.6129145532818338	0.0	1.1358310531788047	-0.6517373550710202	0.0	1.12915263199937	-0.651613830941444	0.0	1.1044642628917158	-0.6263380643359442	0.0	1.0369905223611686	-0.4901716282700939	0.0	1.1104896850401127	-0.5163520384349285	0.0	1.113695741395656	-0.6117875985203071	0.0	1.1410797999389706	-0.6507996963895106	0.0	1.139213260683908	-0.6514822050891373	0.0	1.1010818192082363	-0.6269401091351555	0.0	0.9655512356177579	-0.388530828788283	0.0	0.9563537686766413	-0.32683993502284153	0.0	0.9799195638248714	-0.35571145654308606	0.0	0.9560050067002509	-0.3901388839608648	0.0	0.9580307336015051	-0.3240962876394274	0.0	0.9534180464776327	-0.26798085435756963	0.0	0.9741501147745034	-0.3923252347538966	0.0	0.9664114381643032	-0.3317175152927311	0.0	0.963346145081514	-0.2858907336377216	0.0
212	3.5473646209386276	1.0304355542109436	-0.48399924626343327	0.0	1.0283704146127608	-0.48493251372156054	0.0	1.111049370508594	-0.49278795119854557	0.0	1.1191232176209	-0.5860361107003701	0.0	1.1459604557903618	-0.6232329531434202	0.0	1.139864660674378	-0.623522510995039	0.0	1.1135145881348327	-0.5996717377045553	0.0	1.034616648026906	-0.4810435162561387	0.0	1.11133305069157	-0.49148843033828427	0.0	1.1214614801523617	-0.5843933381012945	0.0	1.1505682191945588	-0.6217144651761128	0.0	1.1487049544483503	-0.6224370415639927	0.0	1.1093947374271254	-0.6002623061530484	0.0	0.9598728825544853	-0.3821462467430337	0.0	0.9513468694334798	-0.3200582184256769	0.0	0.9753242109356737	-0.3493843536796273	0.0	0.950830919506037	-0.38380626468371654	0.0	0.9574655949593932	-0.32062688789088556	0.0	0.9566868653229819	-0.2644702808275133	0.0	0.9686251299694264	-0.385642804925397	0.0	0.965560596261207	-0.32690818009015665	0.0	0.9646991534623195	-0.2778685054329037	0.0
213	3.564097472924187	1.028280225557683	-0.47612236826245663	0.0	1.0264985266935693	-0.47734741323954966	0.0	1.109844296523262	-0.46838192498228015	0.0	1.1262817501433742	-0.5578922361436085	0.0	1.1549437723460143	-0.5918193832323959	0.0	1.149565050860423	-0.592738521942386	0.0	1.1218460860388852	-0.5716034133397995	0.0	1.0325812357270154	-0.4724629993868439	0.0	1.1099555407013209	-0.4668390381757452	0.0	1.1280841966612623	-0.5557081905424545	0.0	1.1586817964235872	-0.5897404708461523	0.0	1.1568064219801883	-0.5905454220466465	0.0	1.1170328319119152	-0.5720998538336423	0.0	0.9545648323685334	-0.37673031253693123	0.0	0.9465132316722494	-0.31435980807612873	0.0	0.9709701578042117	-0.3438898960658262	0.0	0.9462154561308663	-0.37842599225007756	0.0	0.9579886791670591	-0.31834745484426086	0.0	0.9609982780654367	-0.2623998760919052	0.0	0.9633299766409195	-0.3800156711275139	0.0	0.9656954437678172	-0.3235778306879319	0.0	0.9674787501370685	-0.27273136445267643	0.0
214	3.580830324909747	1.026666595318101	-0.46875139669772636	0.0	1.0252319316026084	-0.47020324389951135	0.0	1.1063285462834538	-0.44457343163711066	0.0	1.131913117604661	-0.5288067224402699	0.0	1.1621414357046957	-0.5580081306873318	0.0	1.157625576463554	-0.5597351849863683	0.0	1.1289546764302114	-0.5424688641672772	0.0	1.0310210730972267	-0.46436608091330805	0.0	1.1062441043948033	-0.4428931475820322	0.0	1.133145108372238	-0.5261430274295698	0.0	1.1648592736002708	-0.5555286466146367	0.0	1.1630454517011475	-0.5564445829208505	0.0	1.1235641755926566	-0.5428436566854689	0.0	0.9496955397062475	-0.37235326421506587	0.0	0.9416888921238099	-0.3099470187204134	0.0	0.9667658406377719	-0.3392958590216072	0.0	0.9422126141827227	-0.3740627324117955	0.0	0.9594295338178455	-0.31721162441916934	0.0	0.9659827204050876	-0.2617781192264943	0.0	0.958357231000909	-0.3755549960952396	0.0	0.9666295570632601	-0.3216247839319123	0.0	0.9712652204766062	-0.2701753756380538	0.0
215	3.5975631768953065	1.0257183937385368	-0.46174512444725163	0.0	1.0246697084432022	-0.4633252699793319	0.0	1.1005245266269303	-0.42178375490394093	0.0	1.1356015582007468	-0.4991807788364646	0.0	1.1669466652461284	-0.5224548061145736	0.0	1.1634426481196547	-0.5251021485005856	0.0	1.134354589631644	-0.5126594700583181	0.0	1.0300381740777205	-0.4566752605976571	0.0	1.1002272721339532	-0.4201278036555121	0.0	1.1362623922418444	-0.49616668565112726	0.0	1.168646717679596	-0.519828028636954	0.0	1.1670103274766785	-0.5208698603149335	0.0	1.128562448416962	-0.5129145361508747	0.0	0.9453316332697502	-0.369098510237123	0.0	0.9366973796212961	-0.30704950606027015	0.0	0.9625976950409303	-0.3357157540057386	0.0	0.938879975481863	-0.37080141882933276	0.0	0.9615827659407805	-0.3171515932346809	0.0	0.9712410442086431	-0.2625620000843508	0.0	0.9537785751837213	-0.37237520648272737	0.0	0.9681338995969628	-0.320934083595047	0.0	0.9755728128818517	-0.2698101168291216	0.0
